<svg width="120" height="120" viewBox="0 0 120 120" fill="none" xmlns="http://www.w3.org/2000/svg">
<rect width="120" height="120" rx="20" fill="#7E7E7E"/>
<rect width="2" height="2" transform="matrix(1 -8.74228e-08 -8.74228e-08 -1 23 99)" fill="white"/>
<rect width="2" height="2" transform="matrix(1 -8.74228e-08 -8.74228e-08 -1 35 99)" fill="white"/>
<rect width="2" height="2" transform="matrix(1 -8.74228e-08 -8.74228e-08 -1 47 99)" fill="white"/>
<rect width="2" height="2" transform="matrix(1 -8.74228e-08 -8.74228e-08 -1 59 99)" fill="white"/>
<rect width="6" height="6" transform="matrix(-1 0 0 1 75 95)" fill="white"/>
<rect width="6" height="6" transform="matrix(-1 0 0 1 87 95)" fill="white"/>
<rect width="6" height="6" transform="matrix(-1 0 0 1 99 95)" fill="white"/>
<rect width="2" height="2" transform="matrix(1 -8.74228e-08 -8.74228e-08 -1 23 87)" fill="white"/>
<rect width="2" height="2" transform="matrix(1 -8.74228e-08 -8.74228e-08 -1 35 87)" fill="white"/>
<rect width="2" height="2" transform="matrix(1 -8.74228e-08 -8.74228e-08 -1 47 87)" fill="white"/>
<rect width="6" height="6" transform="matrix(-1 0 0 1 63 83)" fill="white"/>
<rect width="6" height="6" transform="matrix(-1 0 0 1 75 83)" fill="white"/>
<rect width="6" height="6" transform="matrix(-1 0 0 1 87 83)" fill="white"/>
<rect width="6" height="6" transform="matrix(1 -8.74228e-08 -8.74228e-08 -1 93 89)" fill="white"/>
<rect width="2" height="2" transform="matrix(1 -8.74228e-08 -8.74228e-08 -1 23 75)" fill="white"/>
<rect width="2" height="2" transform="matrix(1 -8.74228e-08 -8.74228e-08 -1 35 75)" fill="white"/>
<rect width="6" height="6" transform="matrix(-1 0 0 1 51 71)" fill="white"/>
<rect width="6" height="6" transform="matrix(-1 0 0 1 63 71)" fill="white"/>
<rect width="6" height="6" transform="matrix(-1 0 0 1 75 71)" fill="white"/>
<rect width="6" height="6" transform="matrix(1 -8.74228e-08 -8.74228e-08 -1 81 77)" fill="white"/>
<rect width="6" height="6" transform="matrix(1 -8.74228e-08 -8.74228e-08 -1 93 77)" fill="white"/>
<rect width="2" height="2" transform="matrix(1 -8.74228e-08 -8.74228e-08 -1 23 63)" fill="white"/>
<rect width="6" height="6" transform="matrix(1 -8.74228e-08 -8.74228e-08 -1 33 65)" fill="white"/>
<rect width="6" height="6" transform="matrix(1 -8.74228e-08 -8.74228e-08 -1 45 65)" fill="white"/>
<rect width="6" height="6" transform="matrix(1 -8.74228e-08 -8.74228e-08 -1 57 65)" fill="white"/>
<rect width="6" height="6" transform="matrix(1 -8.74228e-08 -8.74228e-08 -1 69 65)" fill="white"/>
<rect width="6" height="6" transform="matrix(1 -8.74228e-08 -8.74228e-08 -1 81 65)" fill="white"/>
<rect width="2" height="2" transform="matrix(1 -8.74228e-08 -8.74228e-08 -1 95 63)" fill="white"/>
<rect width="6" height="6" transform="matrix(1 -8.74228e-08 -8.74228e-08 -1 21 53)" fill="white"/>
<rect width="6" height="6" transform="matrix(1 -8.74228e-08 -8.74228e-08 -1 33 53)" fill="white"/>
<rect width="6" height="6" transform="matrix(1 -8.74228e-08 -8.74228e-08 -1 45 53)" fill="white"/>
<rect width="6" height="6" transform="matrix(1 -8.74228e-08 -8.74228e-08 -1 57 53)" fill="white"/>
<rect width="6" height="6" transform="matrix(1 -8.74228e-08 -8.74228e-08 -1 69 53)" fill="white"/>
<rect width="2" height="2" transform="matrix(1 -8.74228e-08 -8.74228e-08 -1 83 51)" fill="white"/>
<rect width="2" height="2" transform="matrix(1 -8.74228e-08 -8.74228e-08 -1 95 51)" fill="white"/>
<rect width="6" height="6" transform="matrix(1 -8.74228e-08 -8.74228e-08 -1 21 41)" fill="white"/>
<rect width="6" height="6" transform="matrix(1 -8.74228e-08 -8.74228e-08 -1 33 41)" fill="white"/>
<rect width="6" height="6" transform="matrix(1 -8.74228e-08 -8.74228e-08 -1 45 41)" fill="white"/>
<rect width="6" height="6" transform="matrix(1 -8.74228e-08 -8.74228e-08 -1 57 41)" fill="white"/>
<rect width="2" height="2" transform="matrix(1 -8.74228e-08 -8.74228e-08 -1 71 39)" fill="white"/>
<rect width="2" height="2" transform="matrix(1 -8.74228e-08 -8.74228e-08 -1 83 39)" fill="white"/>
<rect width="2" height="2" transform="matrix(1 -8.74228e-08 -8.74228e-08 -1 95 39)" fill="white"/>
<rect width="6" height="6" transform="matrix(1 -8.74228e-08 -8.74228e-08 -1 21 29)" fill="white"/>
<rect width="6" height="6" transform="matrix(1 -8.74228e-08 -8.74228e-08 -1 33 29)" fill="white"/>
<rect width="6" height="6" transform="matrix(1 -8.74228e-08 -8.74228e-08 -1 45 29)" fill="white"/>
<rect width="2" height="2" transform="matrix(1 -8.74228e-08 -8.74228e-08 -1 59 27)" fill="white"/>
<rect width="2" height="2" transform="matrix(1 -8.74228e-08 -8.74228e-08 -1 71 27)" fill="white"/>
<rect width="2" height="2" transform="matrix(1 -8.74228e-08 -8.74228e-08 -1 83 27)" fill="white"/>
<rect width="2" height="2" transform="matrix(1 -8.74228e-08 -8.74228e-08 -1 95 27)" fill="white"/>
</svg>
