<svg width="120" height="120" viewBox="0 0 120 120" fill="none" xmlns="http://www.w3.org/2000/svg">
<rect width="120" height="120" rx="20" fill="#7E7E7E"/>
<rect x="97" y="99" width="2" height="2" transform="rotate(-180 97 99)" fill="white"/>
<rect x="85" y="99" width="2" height="2" transform="rotate(-180 85 99)" fill="white"/>
<rect x="73" y="99" width="2" height="2" transform="rotate(-180 73 99)" fill="white"/>
<rect x="61" y="99" width="2" height="2" transform="rotate(-180 61 99)" fill="white"/>
<rect x="49" y="99" width="2" height="2" transform="rotate(-180 49 99)" fill="white"/>
<rect x="37" y="99" width="2" height="2" transform="rotate(-180 37 99)" fill="white"/>
<rect x="25" y="99" width="2" height="2" transform="rotate(-180 25 99)" fill="white"/>
<rect x="97" y="87" width="2" height="2" transform="rotate(-180 97 87)" fill="white"/>
<rect x="85" y="87" width="2" height="2" transform="rotate(-180 85 87)" fill="white"/>
<rect x="73" y="87" width="2" height="2" transform="rotate(-180 73 87)" fill="white"/>
<rect x="61" y="87" width="2" height="2" transform="rotate(-180 61 87)" fill="white"/>
<rect x="49" y="87" width="2" height="2" transform="rotate(-180 49 87)" fill="white"/>
<rect x="37" y="87" width="2" height="2" transform="rotate(-180 37 87)" fill="white"/>
<rect x="25" y="87" width="2" height="2" transform="rotate(-180 25 87)" fill="white"/>
<rect x="97" y="75" width="2" height="2" transform="rotate(-180 97 75)" fill="white"/>
<rect x="85" y="75" width="2" height="2" transform="rotate(-180 85 75)" fill="white"/>
<rect x="73" y="75" width="2" height="2" transform="rotate(-180 73 75)" fill="white"/>
<rect x="61" y="75" width="2" height="2" transform="rotate(-180 61 75)" fill="white"/>
<rect x="49" y="75" width="2" height="2" transform="rotate(-180 49 75)" fill="white"/>
<rect x="37" y="75" width="2" height="2" transform="rotate(-180 37 75)" fill="white"/>
<rect x="25" y="75" width="2" height="2" transform="rotate(-180 25 75)" fill="white"/>
<rect x="97" y="63" width="2" height="2" transform="rotate(-180 97 63)" fill="white"/>
<rect x="85" y="63" width="2" height="2" transform="rotate(-180 85 63)" fill="white"/>
<rect x="73" y="63" width="2" height="2" transform="rotate(-180 73 63)" fill="white"/>
<rect x="63" y="65" width="6" height="6" transform="rotate(-180 63 65)" fill="white"/>
<rect x="49" y="63" width="2" height="2" transform="rotate(-180 49 63)" fill="white"/>
<rect x="37" y="63" width="2" height="2" transform="rotate(-180 37 63)" fill="white"/>
<rect x="25" y="63" width="2" height="2" transform="rotate(-180 25 63)" fill="white"/>
<rect x="97" y="51" width="2" height="2" transform="rotate(-180 97 51)" fill="white"/>
<rect x="85" y="51" width="2" height="2" transform="rotate(-180 85 51)" fill="white"/>
<rect x="75" y="53" width="6" height="6" transform="rotate(-180 75 53)" fill="white"/>
<rect x="63" y="53" width="6" height="6" transform="rotate(-180 63 53)" fill="white"/>
<rect x="51" y="53" width="6" height="6" transform="rotate(-180 51 53)" fill="white"/>
<rect x="37" y="51" width="2" height="2" transform="rotate(-180 37 51)" fill="white"/>
<rect x="25" y="51" width="2" height="2" transform="rotate(-180 25 51)" fill="white"/>
<rect x="97" y="39" width="2" height="2" transform="rotate(-180 97 39)" fill="white"/>
<rect x="87" y="41" width="6" height="6" transform="rotate(-180 87 41)" fill="white"/>
<rect x="75" y="41" width="6" height="6" transform="rotate(-180 75 41)" fill="white"/>
<rect x="63" y="41" width="6" height="6" transform="rotate(-180 63 41)" fill="white"/>
<rect x="51" y="41" width="6" height="6" transform="rotate(-180 51 41)" fill="white"/>
<rect x="39" y="41" width="6" height="6" transform="rotate(-180 39 41)" fill="white"/>
<rect x="25" y="39" width="2" height="2" transform="rotate(-180 25 39)" fill="white"/>
<rect x="99" y="29" width="6" height="6" transform="rotate(-180 99 29)" fill="white"/>
<rect x="87" y="29" width="6" height="6" transform="rotate(-180 87 29)" fill="white"/>
<rect x="75" y="29" width="6" height="6" transform="rotate(-180 75 29)" fill="white"/>
<rect x="63" y="29" width="6" height="6" transform="rotate(-180 63 29)" fill="white"/>
<rect x="51" y="29" width="6" height="6" transform="rotate(-180 51 29)" fill="white"/>
<rect x="39" y="29" width="6" height="6" transform="rotate(-180 39 29)" fill="white"/>
<rect x="27" y="29" width="6" height="6" transform="rotate(-180 27 29)" fill="white"/>
</svg>
