<svg width="120" height="120" viewBox="0 0 120 120" fill="none" xmlns="http://www.w3.org/2000/svg">
<rect width="120" height="120" rx="20" fill="#7E7E7E"/>
<rect x="23" y="25" width="2" height="2" fill="white"/>
<rect x="35" y="25" width="2" height="2" fill="white"/>
<rect x="47" y="25" width="2" height="2" fill="white"/>
<rect x="59" y="25" width="2" height="2" fill="white"/>
<rect x="71" y="25" width="2" height="2" fill="white"/>
<rect x="83" y="25" width="2" height="2" fill="white"/>
<rect x="95" y="25" width="2" height="2" fill="white"/>
<rect x="23" y="37" width="2" height="2" fill="white"/>
<rect x="35" y="37" width="2" height="2" fill="white"/>
<rect x="47" y="37" width="2" height="2" fill="white"/>
<rect x="59" y="37" width="2" height="2" fill="white"/>
<rect x="71" y="37" width="2" height="2" fill="white"/>
<rect x="83" y="37" width="2" height="2" fill="white"/>
<rect x="95" y="37" width="2" height="2" fill="white"/>
<rect x="23" y="49" width="2" height="2" fill="white"/>
<rect x="35" y="49" width="2" height="2" fill="white"/>
<rect x="47" y="49" width="2" height="2" fill="white"/>
<rect x="59" y="49" width="2" height="2" fill="white"/>
<rect x="71" y="49" width="2" height="2" fill="white"/>
<rect x="83" y="49" width="2" height="2" fill="white"/>
<rect x="95" y="49" width="2" height="2" fill="white"/>
<rect x="23" y="61" width="2" height="2" fill="white"/>
<rect x="35" y="61" width="2" height="2" fill="white"/>
<rect x="47" y="61" width="2" height="2" fill="white"/>
<rect x="57" y="59" width="6" height="6" fill="white"/>
<rect x="71" y="61" width="2" height="2" fill="white"/>
<rect x="83" y="61" width="2" height="2" fill="white"/>
<rect x="95" y="61" width="2" height="2" fill="white"/>
<rect x="23" y="73" width="2" height="2" fill="white"/>
<rect x="35" y="73" width="2" height="2" fill="white"/>
<rect x="45" y="71" width="6" height="6" fill="white"/>
<rect x="57" y="71" width="6" height="6" fill="white"/>
<rect x="69" y="71" width="6" height="6" fill="white"/>
<rect x="83" y="73" width="2" height="2" fill="white"/>
<rect x="95" y="73" width="2" height="2" fill="white"/>
<rect x="23" y="85" width="2" height="2" fill="white"/>
<rect x="33" y="83" width="6" height="6" fill="white"/>
<rect x="45" y="83" width="6" height="6" fill="white"/>
<rect x="57" y="83" width="6" height="6" fill="white"/>
<rect x="69" y="83" width="6" height="6" fill="white"/>
<rect x="81" y="83" width="6" height="6" fill="white"/>
<rect x="95" y="85" width="2" height="2" fill="white"/>
<rect x="21" y="95" width="6" height="6" fill="white"/>
<rect x="33" y="95" width="6" height="6" fill="white"/>
<rect x="45" y="95" width="6" height="6" fill="white"/>
<rect x="57" y="95" width="6" height="6" fill="white"/>
<rect x="69" y="95" width="6" height="6" fill="white"/>
<rect x="81" y="95" width="6" height="6" fill="white"/>
<rect x="93" y="95" width="6" height="6" fill="white"/>
</svg>
