<svg width="120" height="120" viewBox="0 0 120 120" fill="none" xmlns="http://www.w3.org/2000/svg">
<rect width="120" height="120" rx="20" fill="#7E7E7E"/>
<rect width="6" height="6" transform="matrix(1 0 0 -1 93 29)" fill="white"/>
<rect width="6" height="6" transform="matrix(1 0 0 -1 81 29)" fill="white"/>
<rect width="6" height="6" transform="matrix(1 0 0 -1 69 29)" fill="white"/>
<rect width="6" height="6" transform="matrix(1 0 0 -1 57 29)" fill="white"/>
<rect width="6" height="6" transform="matrix(1 0 0 -1 45 29)" fill="white"/>
<rect width="6" height="6" transform="matrix(1 0 0 -1 33 29)" fill="white"/>
<rect width="6" height="6" transform="matrix(1 0 0 -1 21 29)" fill="white"/>
<rect width="6" height="6" transform="matrix(1 0 0 -1 93 41)" fill="white"/>
<rect width="6" height="6" transform="matrix(1 0 0 -1 81 41)" fill="white"/>
<rect width="6" height="6" transform="matrix(1 0 0 -1 69 41)" fill="white"/>
<rect width="6" height="6" transform="matrix(1 0 0 -1 57 41)" fill="white"/>
<rect width="6" height="6" transform="matrix(1 0 0 -1 45 41)" fill="white"/>
<rect width="6" height="6" transform="matrix(1 0 0 -1 33 41)" fill="white"/>
<rect width="6" height="6" transform="matrix(1 0 0 -1 21 41)" fill="white"/>
<rect width="6" height="6" transform="matrix(1 0 0 -1 93 53)" fill="white"/>
<rect width="6" height="6" transform="matrix(1 0 0 -1 81 53)" fill="white"/>
<rect width="6" height="6" transform="matrix(1 0 0 -1 69 53)" fill="white"/>
<rect width="6" height="6" transform="matrix(1 0 0 -1 57 53)" fill="white"/>
<rect width="6" height="6" transform="matrix(1 0 0 -1 45 53)" fill="white"/>
<rect width="6" height="6" transform="matrix(1 0 0 -1 33 53)" fill="white"/>
<rect width="6" height="6" transform="matrix(1 0 0 -1 21 53)" fill="white"/>
<rect width="6" height="6" transform="matrix(1 0 0 -1 93 65)" fill="white"/>
<rect width="6" height="6" transform="matrix(1 0 0 -1 81 65)" fill="white"/>
<rect width="6" height="6" transform="matrix(1 0 0 -1 69 65)" fill="white"/>
<rect width="6" height="6" transform="matrix(-1 8.74228e-08 8.74228e-08 1 63 59)" fill="white"/>
<rect width="6" height="6" transform="matrix(1 0 0 -1 45 65)" fill="white"/>
<rect width="6" height="6" transform="matrix(1 0 0 -1 33 65)" fill="white"/>
<rect width="6" height="6" transform="matrix(1 0 0 -1 21 65)" fill="white"/>
<rect width="2" height="2" transform="matrix(-1 8.74228e-08 8.74228e-08 1 97 73)" fill="white"/>
<rect width="2" height="2" transform="matrix(-1 8.74228e-08 8.74228e-08 1 85 73)" fill="white"/>
<rect width="6" height="6" transform="matrix(1 0 0 -1 69 77)" fill="white"/>
<rect width="2" height="2" transform="matrix(-1 8.74228e-08 8.74228e-08 1 61 73)" fill="white"/>
<rect width="6" height="6" transform="matrix(1 0 0 -1 45 77)" fill="white"/>
<rect width="2" height="2" transform="matrix(-1 8.74228e-08 8.74228e-08 1 37 73)" fill="white"/>
<rect width="2" height="2" transform="matrix(-1 8.74228e-08 8.74228e-08 1 25 73)" fill="white"/>
<rect width="2" height="2" transform="matrix(-1 8.74228e-08 8.74228e-08 1 97 85)" fill="white"/>
<rect width="2" height="2" transform="matrix(-1 8.74228e-08 8.74228e-08 1 85 85)" fill="white"/>
<rect width="6" height="6" transform="matrix(1 0 0 -1 69 89)" fill="white"/>
<rect width="2" height="2" transform="matrix(-1 8.74228e-08 8.74228e-08 1 61 85)" fill="white"/>
<rect width="6" height="6" transform="matrix(1 0 0 -1 45 89)" fill="white"/>
<rect width="2" height="2" transform="matrix(-1 8.74228e-08 8.74228e-08 1 37 85)" fill="white"/>
<rect width="2" height="2" transform="matrix(-1 8.74228e-08 8.74228e-08 1 25 85)" fill="white"/>
<rect width="2" height="2" transform="matrix(-1 8.74228e-08 8.74228e-08 1 97 97)" fill="white"/>
<rect width="2" height="2" transform="matrix(-1 8.74228e-08 8.74228e-08 1 85 97)" fill="white"/>
<rect width="2" height="2" transform="matrix(-1 8.74228e-08 8.74228e-08 1 73 97)" fill="white"/>
<rect width="2" height="2" transform="matrix(-1 8.74228e-08 8.74228e-08 1 61 97)" fill="white"/>
<rect width="2" height="2" transform="matrix(-1 8.74228e-08 8.74228e-08 1 49 97)" fill="white"/>
<rect width="2" height="2" transform="matrix(-1 8.74228e-08 8.74228e-08 1 37 97)" fill="white"/>
<rect width="2" height="2" transform="matrix(-1 8.74228e-08 8.74228e-08 1 25 97)" fill="white"/>
</svg>
