<svg width="120" height="120" viewBox="0 0 120 120" fill="none" xmlns="http://www.w3.org/2000/svg">
<rect width="120" height="120" rx="20" fill="#7E7E7E"/>
<rect x="97" y="99" width="2" height="2" transform="rotate(-180 97 99)" fill="white"/>
<rect x="85" y="99" width="2" height="2" transform="rotate(-180 85 99)" fill="white"/>
<rect x="73" y="99" width="2" height="2" transform="rotate(-180 73 99)" fill="white"/>
<rect x="61" y="99" width="2" height="2" transform="rotate(-180 61 99)" fill="white"/>
<rect x="45" y="95" width="6" height="6" fill="white"/>
<rect x="33" y="95" width="6" height="6" fill="white"/>
<rect x="21" y="95" width="6" height="6" fill="white"/>
<rect x="97" y="87" width="2" height="2" transform="rotate(-180 97 87)" fill="white"/>
<rect x="85" y="87" width="2" height="2" transform="rotate(-180 85 87)" fill="white"/>
<rect x="73" y="87" width="2" height="2" transform="rotate(-180 73 87)" fill="white"/>
<rect x="57" y="83" width="6" height="6" fill="white"/>
<rect x="45" y="83" width="6" height="6" fill="white"/>
<rect x="33" y="83" width="6" height="6" fill="white"/>
<rect x="27" y="89" width="6" height="6" transform="rotate(-180 27 89)" fill="white"/>
<rect x="97" y="75" width="2" height="2" transform="rotate(-180 97 75)" fill="white"/>
<rect x="85" y="75" width="2" height="2" transform="rotate(-180 85 75)" fill="white"/>
<rect x="69" y="71" width="6" height="6" fill="white"/>
<rect x="57" y="71" width="6" height="6" fill="white"/>
<rect x="45" y="71" width="6" height="6" fill="white"/>
<rect x="39" y="77" width="6" height="6" transform="rotate(-180 39 77)" fill="white"/>
<rect x="27" y="77" width="6" height="6" transform="rotate(-180 27 77)" fill="white"/>
<rect x="97" y="63" width="2" height="2" transform="rotate(-180 97 63)" fill="white"/>
<rect x="87" y="65" width="6" height="6" transform="rotate(-180 87 65)" fill="white"/>
<rect x="75" y="65" width="6" height="6" transform="rotate(-180 75 65)" fill="white"/>
<rect x="63" y="65" width="6" height="6" transform="rotate(-180 63 65)" fill="white"/>
<rect x="51" y="65" width="6" height="6" transform="rotate(-180 51 65)" fill="white"/>
<rect x="39" y="65" width="6" height="6" transform="rotate(-180 39 65)" fill="white"/>
<rect x="25" y="63" width="2" height="2" transform="rotate(-180 25 63)" fill="white"/>
<rect x="99" y="53" width="6" height="6" transform="rotate(-180 99 53)" fill="white"/>
<rect x="87" y="53" width="6" height="6" transform="rotate(-180 87 53)" fill="white"/>
<rect x="75" y="53" width="6" height="6" transform="rotate(-180 75 53)" fill="white"/>
<rect x="63" y="53" width="6" height="6" transform="rotate(-180 63 53)" fill="white"/>
<rect x="51" y="53" width="6" height="6" transform="rotate(-180 51 53)" fill="white"/>
<rect x="37" y="51" width="2" height="2" transform="rotate(-180 37 51)" fill="white"/>
<rect x="25" y="51" width="2" height="2" transform="rotate(-180 25 51)" fill="white"/>
<rect x="99" y="41" width="6" height="6" transform="rotate(-180 99 41)" fill="white"/>
<rect x="87" y="41" width="6" height="6" transform="rotate(-180 87 41)" fill="white"/>
<rect x="75" y="41" width="6" height="6" transform="rotate(-180 75 41)" fill="white"/>
<rect x="63" y="41" width="6" height="6" transform="rotate(-180 63 41)" fill="white"/>
<rect x="49" y="39" width="2" height="2" transform="rotate(-180 49 39)" fill="white"/>
<rect x="37" y="39" width="2" height="2" transform="rotate(-180 37 39)" fill="white"/>
<rect x="25" y="39" width="2" height="2" transform="rotate(-180 25 39)" fill="white"/>
<rect x="99" y="29" width="6" height="6" transform="rotate(-180 99 29)" fill="white"/>
<rect x="87" y="29" width="6" height="6" transform="rotate(-180 87 29)" fill="white"/>
<rect x="75" y="29" width="6" height="6" transform="rotate(-180 75 29)" fill="white"/>
<rect x="61" y="27" width="2" height="2" transform="rotate(-180 61 27)" fill="white"/>
<rect x="49" y="27" width="2" height="2" transform="rotate(-180 49 27)" fill="white"/>
<rect x="37" y="27" width="2" height="2" transform="rotate(-180 37 27)" fill="white"/>
<rect x="25" y="27" width="2" height="2" transform="rotate(-180 25 27)" fill="white"/>
</svg>
