<svg width="120" height="120" viewBox="0 0 120 120" fill="none" xmlns="http://www.w3.org/2000/svg">
<rect width="120" height="120" rx="20" fill="#7E7E7E"/>
<rect x="93" y="95" width="6" height="6" fill="white"/>
<rect x="81" y="95" width="6" height="6" fill="white"/>
<rect x="69" y="95" width="6" height="6" fill="white"/>
<rect x="57" y="95" width="6" height="6" fill="white"/>
<rect x="45" y="95" width="6" height="6" fill="white"/>
<rect x="33" y="95" width="6" height="6" fill="white"/>
<rect x="21" y="95" width="6" height="6" fill="white"/>
<rect x="93" y="83" width="6" height="6" fill="white"/>
<rect x="81" y="83" width="6" height="6" fill="white"/>
<rect x="69" y="83" width="6" height="6" fill="white"/>
<rect x="57" y="83" width="6" height="6" fill="white"/>
<rect x="45" y="83" width="6" height="6" fill="white"/>
<rect x="33" y="83" width="6" height="6" fill="white"/>
<rect x="21" y="83" width="6" height="6" fill="white"/>
<rect x="93" y="71" width="6" height="6" fill="white"/>
<rect x="81" y="71" width="6" height="6" fill="white"/>
<rect x="69" y="71" width="6" height="6" fill="white"/>
<rect x="57" y="71" width="6" height="6" fill="white"/>
<rect x="45" y="71" width="6" height="6" fill="white"/>
<rect x="33" y="71" width="6" height="6" fill="white"/>
<rect x="21" y="71" width="6" height="6" fill="white"/>
<rect x="93" y="59" width="6" height="6" fill="white"/>
<rect x="81" y="59" width="6" height="6" fill="white"/>
<rect x="69" y="59" width="6" height="6" fill="white"/>
<rect x="63" y="65" width="6" height="6" transform="rotate(-180 63 65)" fill="white"/>
<rect x="45" y="59" width="6" height="6" fill="white"/>
<rect x="33" y="59" width="6" height="6" fill="white"/>
<rect x="21" y="59" width="6" height="6" fill="white"/>
<rect x="93" y="47" width="6" height="6" fill="white"/>
<rect x="81" y="47" width="6" height="6" fill="white"/>
<rect x="75" y="53" width="6" height="6" transform="rotate(-180 75 53)" fill="white"/>
<rect x="63" y="53" width="6" height="6" transform="rotate(-180 63 53)" fill="white"/>
<rect x="51" y="53" width="6" height="6" transform="rotate(-180 51 53)" fill="white"/>
<rect x="33" y="47" width="6" height="6" fill="white"/>
<rect x="21" y="47" width="6" height="6" fill="white"/>
<rect x="99" y="41" width="6" height="6" transform="rotate(-180 99 41)" fill="white"/>
<rect x="87" y="41" width="6" height="6" transform="rotate(-180 87 41)" fill="white"/>
<rect x="75" y="41" width="6" height="6" transform="rotate(-180 75 41)" fill="white"/>
<rect x="63" y="41" width="6" height="6" transform="rotate(-180 63 41)" fill="white"/>
<rect x="51" y="41" width="6" height="6" transform="rotate(-180 51 41)" fill="white"/>
<rect x="39" y="41" width="6" height="6" transform="rotate(-180 39 41)" fill="white"/>
<rect x="27" y="41" width="6" height="6" transform="rotate(-180 27 41)" fill="white"/>
<rect x="97" y="27" width="2" height="2" transform="rotate(-180 97 27)" fill="white"/>
<rect x="87" y="29" width="6" height="6" transform="rotate(-180 87 29)" fill="white"/>
<rect x="73" y="27" width="2" height="2" transform="rotate(-180 73 27)" fill="white"/>
<rect x="63" y="29" width="6" height="6" transform="rotate(-180 63 29)" fill="white"/>
<rect x="49" y="27" width="2" height="2" transform="rotate(-180 49 27)" fill="white"/>
<rect x="39" y="29" width="6" height="6" transform="rotate(-180 39 29)" fill="white"/>
<rect x="25" y="27" width="2" height="2" transform="rotate(-180 25 27)" fill="white"/>
</svg>
