<svg width="320" height="20" viewBox="0 0 320 20" fill="none" xmlns="http://www.w3.org/2000/svg">
<rect x="0.5" y="0.5" width="319" height="19" rx="3.5" stroke="#EEEEEE"/>
<circle cx="25.5" cy="10" r="6" fill="#CDCDCD"/>
<path d="M26.2562 13.8983L25.0219 13.888V7.69603L23.6334 8.38518L23.1705 7.33603L25.0219 6.38975H26.2562V13.8983Z" fill="white"/>
<path d="M43.1348 5.94V12.32H42.2148V5.94H43.1348ZM44.4048 8.51V9.26H42.8548V8.51H44.4048ZM37.3548 10.05C38.3214 10.05 39.0881 10.03 39.6548 9.99C40.2214 9.95 40.7814 9.87333 41.3348 9.76L41.4348 10.49C40.8548 10.61 40.2681 10.6933 39.6748 10.74C39.0881 10.78 38.3148 10.8 37.3548 10.8H36.6548V10.05H37.3548ZM40.5648 6.68V7.43H37.5648V10.44H36.6548V6.68H40.5648ZM43.5048 13.83V14.58H37.6048V13.83H43.5048ZM38.5048 11.68V14.19H37.6048V11.68H38.5048ZM50.075 8.37V9.11H48.155V8.37H50.075ZM50.055 10.58V11.31H48.095V10.58H50.055ZM52.255 5.94V14.76H51.385V5.94H52.255ZM50.465 6.16V14.32H49.605V6.16H50.465ZM48.505 7.05C48.505 7.85667 48.395 8.61333 48.175 9.32C47.955 10.0267 47.6017 10.6833 47.115 11.29C46.635 11.89 46.0083 12.42 45.235 12.88L44.705 12.23C45.3783 11.8233 45.9317 11.3667 46.365 10.86C46.7983 10.3467 47.1183 9.79 47.325 9.19C47.5317 8.58333 47.635 7.92667 47.635 7.22V7.05H48.505ZM47.975 7.05V7.79H45.115V7.05H47.975Z" fill="#CDCDCD"/>
<circle cx="71.5" cy="10" r="6" fill="#FFA73A"/>
<path d="M69.1846 12.7612C69.4863 12.4732 69.8703 12.1338 70.3366 11.7429C70.8577 11.2903 71.2726 10.9132 71.5812 10.6115C71.8897 10.3098 72.1469 10.0012 72.3526 9.68576C72.5652 9.36348 72.6714 9.05833 72.6714 8.77033C72.6714 8.50291 72.62 8.26633 72.5172 8.06062C72.4143 7.85491 72.2703 7.69376 72.0852 7.57719C71.9 7.46062 71.6874 7.40233 71.4474 7.40233C71.1663 7.40233 70.8954 7.49491 70.6349 7.68005C70.3743 7.85833 70.1823 8.09148 70.0589 8.37948L68.9892 7.90633C69.2017 7.42633 69.5377 7.03205 69.9972 6.72348C70.4566 6.41491 70.94 6.26062 71.4474 6.26062C71.9274 6.26062 72.3526 6.36691 72.7229 6.57948C73.0932 6.79205 73.3812 7.09033 73.5869 7.47433C73.7994 7.85148 73.9057 8.28348 73.9057 8.77033C73.9057 9.24348 73.7686 9.70976 73.4943 10.1692C73.22 10.6218 72.8909 11.0366 72.5069 11.4138C72.1229 11.784 71.6223 12.2229 71.0052 12.7303C70.58 13.0869 70.2372 13.3852 69.9766 13.6252L69.1846 12.7612ZM69.1846 12.7612H74.0189V13.8412H69.2874L69.1846 12.7612Z" fill="white"/>
<path d="M89.1348 5.94V12.32H88.2148V5.94H89.1348ZM90.4048 8.51V9.26H88.8548V8.51H90.4048ZM83.3548 10.05C84.3214 10.05 85.0881 10.03 85.6548 9.99C86.2214 9.95 86.7814 9.87333 87.3348 9.76L87.4348 10.49C86.8548 10.61 86.2681 10.6933 85.6748 10.74C85.0881 10.78 84.3148 10.8 83.3548 10.8H82.6548V10.05H83.3548ZM86.5648 6.68V7.43H83.5648V10.44H82.6548V6.68H86.5648ZM89.5048 13.83V14.58H83.6048V13.83H89.5048ZM84.5048 11.68V14.19H83.6048V11.68H84.5048ZM96.075 8.37V9.11H94.155V8.37H96.075ZM96.055 10.58V11.31H94.095V10.58H96.055ZM98.255 5.94V14.76H97.385V5.94H98.255ZM96.465 6.16V14.32H95.605V6.16H96.465ZM94.505 7.05C94.505 7.85667 94.395 8.61333 94.175 9.32C93.955 10.0267 93.6017 10.6833 93.115 11.29C92.635 11.89 92.0083 12.42 91.235 12.88L90.705 12.23C91.3783 11.8233 91.9317 11.3667 92.365 10.86C92.7983 10.3467 93.1183 9.79 93.325 9.19C93.5317 8.58333 93.635 7.92667 93.635 7.22V7.05H94.505ZM93.975 7.05V7.79H91.115V7.05H93.975Z" fill="#FFA73A"/>
<circle cx="117.5" cy="10" r="6" fill="#FF4A4A"/>
<path d="M118.966 9.95319C119.302 10.1452 119.573 10.4092 119.779 10.7452C119.992 11.0743 120.098 11.4 120.098 11.7223C120.098 12.1406 119.985 12.5178 119.758 12.8538C119.539 13.1829 119.234 13.44 118.843 13.6252C118.452 13.8103 118.006 13.9029 117.506 13.9029C116.998 13.9029 116.549 13.8069 116.158 13.6149C115.768 13.416 115.462 13.1452 115.243 12.8023C115.024 12.4595 114.914 12.0686 114.914 11.6298H116.148C116.148 11.856 116.203 12.0583 116.313 12.2366C116.429 12.4149 116.59 12.5555 116.796 12.6583C117.002 12.7612 117.235 12.8126 117.496 12.8126C117.77 12.8126 118.013 12.7612 118.226 12.6583C118.438 12.5555 118.603 12.4183 118.72 12.2469C118.843 12.0686 118.905 11.8629 118.905 11.6298C118.905 11.4103 118.846 11.2115 118.73 11.0332C118.613 10.8549 118.449 10.7178 118.236 10.6218C118.024 10.5189 117.784 10.4675 117.516 10.4675H116.992V9.44919H117.537C117.777 9.44919 117.993 9.40805 118.185 9.32576C118.377 9.23662 118.524 9.11319 118.627 8.95548C118.737 8.79091 118.792 8.60576 118.792 8.40005C118.792 8.09833 118.675 7.85148 118.442 7.65948C118.216 7.46062 117.924 7.36119 117.568 7.36119C117.334 7.36119 117.129 7.40576 116.95 7.49491C116.772 7.58405 116.632 7.70748 116.529 7.86519C116.426 8.02291 116.374 8.20462 116.374 8.41033H115.14C115.14 7.99891 115.243 7.63205 115.449 7.30976C115.654 6.98062 115.939 6.72691 116.302 6.54862C116.673 6.36348 117.094 6.27091 117.568 6.27091C118.034 6.27091 118.449 6.36005 118.812 6.53833C119.182 6.70976 119.467 6.94976 119.666 7.25833C119.872 7.56691 119.974 7.92005 119.974 8.31776C119.974 8.61262 119.882 8.91433 119.697 9.22291C119.518 9.52462 119.275 9.76805 118.966 9.95319Z" fill="white"/>
<path d="M135.135 5.94V12.32H134.215V5.94H135.135ZM136.405 8.51V9.26H134.855V8.51H136.405ZM129.355 10.05C130.321 10.05 131.088 10.03 131.655 9.99C132.221 9.95 132.781 9.87333 133.335 9.76L133.435 10.49C132.855 10.61 132.268 10.6933 131.675 10.74C131.088 10.78 130.315 10.8 129.355 10.8H128.655V10.05H129.355ZM132.565 6.68V7.43H129.565V10.44H128.655V6.68H132.565ZM135.505 13.83V14.58H129.605V13.83H135.505ZM130.505 11.68V14.19H129.605V11.68H130.505ZM142.075 8.37V9.11H140.155V8.37H142.075ZM142.055 10.58V11.31H140.095V10.58H142.055ZM144.255 5.94V14.76H143.385V5.94H144.255ZM142.465 6.16V14.32H141.605V6.16H142.465ZM140.505 7.05C140.505 7.85667 140.395 8.61333 140.175 9.32C139.955 10.0267 139.602 10.6833 139.115 11.29C138.635 11.89 138.008 12.42 137.235 12.88L136.705 12.23C137.378 11.8233 137.932 11.3667 138.365 10.86C138.798 10.3467 139.118 9.79 139.325 9.19C139.532 8.58333 139.635 7.92667 139.635 7.22V7.05H140.505ZM139.975 7.05V7.79H137.115V7.05H139.975Z" fill="#FF4A4A"/>
<rect x="159.5" y="5" width="1" height="10" fill="#EEEEEE"/>
<circle cx="180.5" cy="10" r="5.57143" fill="#F8F8F8" stroke="#CDCDCD" stroke-width="0.857143"/>
<path d="M197.5 8.2V8.95H195.58V8.2H197.5ZM198.15 5.95V11.19H197.24V5.95H198.15ZM195.23 11.45C196.143 11.45 196.863 11.5967 197.39 11.89C197.917 12.1833 198.18 12.59 198.18 13.11C198.18 13.63 197.917 14.0333 197.39 14.32C196.87 14.6133 196.15 14.76 195.23 14.76C194.303 14.76 193.577 14.6133 193.05 14.32C192.53 14.0333 192.27 13.63 192.27 13.11C192.27 12.7633 192.387 12.4667 192.62 12.22C192.86 11.9733 193.2 11.7833 193.64 11.65C194.087 11.5167 194.617 11.45 195.23 11.45ZM195.23 12.15C194.797 12.15 194.427 12.19 194.12 12.27C193.813 12.3433 193.58 12.4533 193.42 12.6C193.26 12.74 193.18 12.91 193.18 13.11C193.18 13.31 193.26 13.48 193.42 13.62C193.58 13.76 193.813 13.87 194.12 13.95C194.427 14.0233 194.797 14.06 195.23 14.06C195.657 14.06 196.023 14.0233 196.33 13.95C196.637 13.87 196.87 13.76 197.03 13.62C197.197 13.48 197.28 13.31 197.28 13.11C197.28 12.91 197.197 12.74 197.03 12.6C196.87 12.4533 196.637 12.3433 196.33 12.27C196.023 12.19 195.657 12.15 195.23 12.15ZM193.81 6.83V7.51C193.81 8.05667 193.71 8.57 193.51 9.05C193.31 9.53 193.023 9.95333 192.65 10.32C192.277 10.68 191.84 10.9533 191.34 11.14L190.88 10.41C191.32 10.2567 191.703 10.03 192.03 9.73C192.363 9.43 192.62 9.09 192.8 8.71C192.98 8.32333 193.07 7.92333 193.07 7.51V6.83H193.81ZM193.98 6.83V7.51C193.98 7.88333 194.063 8.24667 194.23 8.6C194.403 8.95333 194.65 9.26667 194.97 9.54C195.29 9.81333 195.663 10.0233 196.09 10.17L195.63 10.89C195.137 10.7167 194.71 10.46 194.35 10.12C193.997 9.78 193.723 9.38667 193.53 8.94C193.343 8.48667 193.25 8.01 193.25 7.51V6.83H193.98ZM195.87 6.56V7.31H191.15V6.56H195.87ZM202.46 6.41V7.28C202.46 7.85333 202.364 8.38667 202.17 8.88C201.977 9.37333 201.697 9.80333 201.33 10.17C200.97 10.5367 200.54 10.8133 200.04 11L199.55 10.27C199.997 10.11 200.384 9.88 200.71 9.58C201.037 9.28 201.284 8.93333 201.45 8.54C201.624 8.14667 201.71 7.72667 201.71 7.28V6.41H202.46ZM202.62 6.41V7.35C202.62 7.73667 202.704 8.11 202.87 8.47C203.044 8.82333 203.287 9.13667 203.6 9.41C203.92 9.68333 204.294 9.89333 204.72 10.04L204.25 10.75C203.77 10.5767 203.35 10.3233 202.99 9.99C202.637 9.65 202.364 9.25333 202.17 8.8C201.977 8.34667 201.88 7.86333 201.88 7.35V6.41H202.62ZM206.48 5.95V11.27H205.56V5.95H206.48ZM207.75 8.17V8.93H206.22V8.17H207.75ZM203.65 11.5C204.564 11.5 205.277 11.6433 205.79 11.93C206.31 12.2167 206.57 12.6167 206.57 13.13C206.57 13.47 206.454 13.76 206.22 14C205.987 14.2467 205.65 14.4333 205.21 14.56C204.77 14.6867 204.25 14.75 203.65 14.75C203.05 14.75 202.53 14.6867 202.09 14.56C201.657 14.4333 201.324 14.2467 201.09 14C200.857 13.7533 200.74 13.46 200.74 13.12C200.74 12.78 200.857 12.49 201.09 12.25C201.324 12.0033 201.657 11.8167 202.09 11.69C202.53 11.5633 203.05 11.5 203.65 11.5ZM203.65 12.21C203.017 12.21 202.52 12.29 202.16 12.45C201.807 12.61 201.63 12.8333 201.63 13.12C201.63 13.4133 201.807 13.64 202.16 13.8C202.52 13.96 203.017 14.04 203.65 14.04C204.284 14.04 204.777 13.96 205.13 13.8C205.49 13.64 205.67 13.4133 205.67 13.12C205.67 12.8333 205.49 12.61 205.13 12.45C204.777 12.29 204.284 12.21 203.65 12.21Z" fill="#AEAEAE"/>
<circle cx="226.5" cy="10" r="6" fill="#FFA73A"/>
<path d="M241.14 6.85V7.19C241.14 7.70333 240.983 8.17333 240.67 8.6C240.363 9.02667 239.943 9.38667 239.41 9.68C238.883 9.96667 238.303 10.16 237.67 10.26L237.33 9.52C237.87 9.44667 238.37 9.29667 238.83 9.07C239.297 8.83667 239.667 8.55667 239.94 8.23C240.213 7.90333 240.35 7.55667 240.35 7.19V6.85H241.14ZM241.37 6.85V7.19C241.37 7.55667 241.507 7.90333 241.78 8.23C242.053 8.55667 242.42 8.83667 242.88 9.07C243.347 9.29667 243.85 9.44667 244.39 9.52L244.05 10.26C243.417 10.16 242.833 9.96667 242.3 9.68C241.773 9.38667 241.353 9.02667 241.04 8.6C240.733 8.17333 240.58 7.70333 240.58 7.19V6.85H241.37ZM241.29 11.44V14.77H240.39V11.44H241.29ZM244.85 10.94V11.69H236.87V10.94H244.85ZM244.09 6.48V7.21H237.61V6.48H244.09ZM248.46 6.57C248.907 6.57 249.31 6.66 249.67 6.84C250.03 7.02 250.314 7.27 250.52 7.59C250.727 7.90333 250.83 8.26333 250.83 8.67C250.83 9.07667 250.727 9.44 250.52 9.76C250.314 10.0733 250.03 10.32 249.67 10.5C249.31 10.68 248.907 10.77 248.46 10.77C248 10.77 247.59 10.68 247.23 10.5C246.87 10.32 246.587 10.0733 246.38 9.76C246.174 9.44 246.07 9.07667 246.07 8.67C246.07 8.26333 246.174 7.90333 246.38 7.59C246.587 7.27 246.87 7.02 247.23 6.84C247.59 6.66 248 6.57 248.46 6.57ZM248.46 7.36C248.174 7.36 247.917 7.41333 247.69 7.52C247.464 7.62667 247.284 7.78 247.15 7.98C247.024 8.18 246.96 8.41 246.96 8.67C246.96 8.92333 247.024 9.15 247.15 9.35C247.284 9.55 247.464 9.70667 247.69 9.82C247.917 9.92667 248.174 9.98 248.46 9.98C248.74 9.98 248.994 9.92667 249.22 9.82C249.447 9.70667 249.624 9.55 249.75 9.35C249.877 9.15 249.94 8.92333 249.94 8.67C249.94 8.41 249.877 8.18 249.75 7.98C249.624 7.78 249.447 7.62667 249.22 7.52C248.994 7.41333 248.74 7.36 248.46 7.36ZM252.83 5.93V14.78H251.91V5.93H252.83ZM245.65 12.12C246.797 12.12 247.824 12.1033 248.73 12.07C249.644 12.0367 250.52 11.9533 251.36 11.82L251.43 12.49C250.564 12.6567 249.677 12.7633 248.77 12.81C247.864 12.8567 246.86 12.88 245.76 12.88L245.65 12.12Z" fill="#FFE5C5"/>
<path d="M241.14 6.85V7.19C241.14 7.70333 240.983 8.17333 240.67 8.6C240.363 9.02667 239.943 9.38667 239.41 9.68C238.883 9.96667 238.303 10.16 237.67 10.26L237.33 9.52C237.87 9.44667 238.37 9.29667 238.83 9.07C239.297 8.83667 239.667 8.55667 239.94 8.23C240.213 7.90333 240.35 7.55667 240.35 7.19V6.85H241.14ZM241.37 6.85V7.19C241.37 7.55667 241.507 7.90333 241.78 8.23C242.053 8.55667 242.42 8.83667 242.88 9.07C243.347 9.29667 243.85 9.44667 244.39 9.52L244.05 10.26C243.417 10.16 242.833 9.96667 242.3 9.68C241.773 9.38667 241.353 9.02667 241.04 8.6C240.733 8.17333 240.58 7.70333 240.58 7.19V6.85H241.37ZM241.29 11.44V14.77H240.39V11.44H241.29ZM244.85 10.94V11.69H236.87V10.94H244.85ZM244.09 6.48V7.21H237.61V6.48H244.09ZM248.46 6.57C248.907 6.57 249.31 6.66 249.67 6.84C250.03 7.02 250.314 7.27 250.52 7.59C250.727 7.90333 250.83 8.26333 250.83 8.67C250.83 9.07667 250.727 9.44 250.52 9.76C250.314 10.0733 250.03 10.32 249.67 10.5C249.31 10.68 248.907 10.77 248.46 10.77C248 10.77 247.59 10.68 247.23 10.5C246.87 10.32 246.587 10.0733 246.38 9.76C246.174 9.44 246.07 9.07667 246.07 8.67C246.07 8.26333 246.174 7.90333 246.38 7.59C246.587 7.27 246.87 7.02 247.23 6.84C247.59 6.66 248 6.57 248.46 6.57ZM248.46 7.36C248.174 7.36 247.917 7.41333 247.69 7.52C247.464 7.62667 247.284 7.78 247.15 7.98C247.024 8.18 246.96 8.41 246.96 8.67C246.96 8.92333 247.024 9.15 247.15 9.35C247.284 9.55 247.464 9.70667 247.69 9.82C247.917 9.92667 248.174 9.98 248.46 9.98C248.74 9.98 248.994 9.92667 249.22 9.82C249.447 9.70667 249.624 9.55 249.75 9.35C249.877 9.15 249.94 8.92333 249.94 8.67C249.94 8.41 249.877 8.18 249.75 7.98C249.624 7.78 249.447 7.62667 249.22 7.52C248.994 7.41333 248.74 7.36 248.46 7.36ZM252.83 5.93V14.78H251.91V5.93H252.83ZM245.65 12.12C246.797 12.12 247.824 12.1033 248.73 12.07C249.644 12.0367 250.52 11.9533 251.36 11.82L251.43 12.49C250.564 12.6567 249.677 12.7633 248.77 12.81C247.864 12.8567 246.86 12.88 245.76 12.88L245.65 12.12Z" fill="#FF8C00"/>
<circle cx="272.5" cy="10" r="6" fill="#FF4A4A"/>
<path d="M285.74 6.35C286.173 6.35 286.56 6.42667 286.9 6.58C287.247 6.73333 287.517 6.95 287.71 7.23C287.903 7.50333 288 7.82 288 8.18C288 8.52667 287.903 8.84 287.71 9.12C287.517 9.4 287.247 9.61667 286.9 9.77C286.56 9.92333 286.173 10 285.74 10C285.307 10 284.917 9.92333 284.57 9.77C284.23 9.61667 283.963 9.4 283.77 9.12C283.577 8.84 283.48 8.52667 283.48 8.18C283.48 7.82 283.577 7.50333 283.77 7.23C283.963 6.95 284.23 6.73333 284.57 6.58C284.917 6.42667 285.307 6.35 285.74 6.35ZM285.74 7.09C285.473 7.09 285.233 7.13667 285.02 7.23C284.813 7.32333 284.65 7.45333 284.53 7.62C284.41 7.78 284.35 7.96667 284.35 8.18C284.35 8.38667 284.41 8.57333 284.53 8.74C284.65 8.9 284.813 9.02667 285.02 9.12C285.233 9.20667 285.473 9.25 285.74 9.25C286.007 9.25 286.243 9.20667 286.45 9.12C286.663 9.02667 286.83 8.9 286.95 8.74C287.07 8.57333 287.13 8.38667 287.13 8.18C287.13 7.96667 287.07 7.78 286.95 7.62C286.83 7.45333 286.663 7.32333 286.45 7.23C286.243 7.13667 286.007 7.09 285.74 7.09ZM286.24 10.97V14.49H285.32V10.97H286.24ZM290.12 5.94V14.77H289.22V5.94H290.12ZM282.86 10.69C283.96 10.69 284.98 10.6733 285.92 10.64C286.867 10.6 287.767 10.5133 288.62 10.38L288.68 11.06C287.807 11.22 286.92 11.3267 286.02 11.38C285.12 11.4267 284.103 11.4533 282.97 11.46L282.86 10.69ZM298.88 5.95V11.28H297.97V5.95H298.88ZM298.36 8.6V9.35H296.59V8.6H298.36ZM298.88 11.72V14.65H293.12V11.72H298.88ZM294.02 12.46V13.92H297.99V12.46H294.02ZM296.73 6.83V7.56H291.62V6.83H296.73ZM294.18 7.97C294.574 7.97 294.927 8.03667 295.24 8.17C295.554 8.30333 295.797 8.49 295.97 8.73C296.144 8.97 296.23 9.24333 296.23 9.55C296.23 9.85667 296.14 10.13 295.96 10.37C295.787 10.6033 295.544 10.7867 295.23 10.92C294.924 11.0533 294.574 11.12 294.18 11.12C293.78 11.12 293.424 11.0567 293.11 10.93C292.797 10.7967 292.55 10.61 292.37 10.37C292.197 10.13 292.11 9.85667 292.11 9.55C292.11 9.24333 292.2 8.97 292.38 8.73C292.56 8.49 292.804 8.30333 293.11 8.17C293.424 8.03667 293.78 7.97 294.18 7.97ZM294.17 8.66C293.944 8.66 293.74 8.69667 293.56 8.77C293.38 8.84333 293.24 8.94667 293.14 9.08C293.04 9.21333 292.99 9.36667 292.99 9.54C292.99 9.80667 293.1 10.0233 293.32 10.19C293.54 10.3567 293.827 10.44 294.18 10.44C294.527 10.44 294.807 10.3567 295.02 10.19C295.24 10.0233 295.35 9.81 295.35 9.55C295.35 9.37 295.3 9.21333 295.2 9.08C295.1 8.94667 294.96 8.84333 294.78 8.77C294.607 8.69667 294.404 8.66 294.17 8.66ZM294.63 5.86V7.35H293.72V5.86H294.63Z" fill="#FF0000"/>
</svg>
