<svg width="320" height="20" viewBox="0 0 320 20" fill="none" xmlns="http://www.w3.org/2000/svg">
<rect x="0.5" y="0.5" width="319" height="19" rx="3.5" fill="white"/>
<rect x="0.5" y="0.5" width="319" height="19" rx="3.5" stroke="#EEEEEE"/>
<circle cx="67" cy="10" r="5.57143" fill="#F8F8F8" stroke="#CDCDCD" stroke-width="0.857143"/>
<path d="M84 8.2V8.95H82.08V8.2H84ZM84.65 5.95V11.19H83.74V5.95H84.65ZM81.73 11.45C82.6433 11.45 83.3633 11.5967 83.89 11.89C84.4167 12.1833 84.68 12.59 84.68 13.11C84.68 13.63 84.4167 14.0333 83.89 14.32C83.37 14.6133 82.65 14.76 81.73 14.76C80.8033 14.76 80.0767 14.6133 79.55 14.32C79.03 14.0333 78.77 13.63 78.77 13.11C78.77 12.7633 78.8867 12.4667 79.12 12.22C79.36 11.9733 79.7 11.7833 80.14 11.65C80.5867 11.5167 81.1167 11.45 81.73 11.45ZM81.73 12.15C81.2967 12.15 80.9267 12.19 80.62 12.27C80.3133 12.3433 80.08 12.4533 79.92 12.6C79.76 12.74 79.68 12.91 79.68 13.11C79.68 13.31 79.76 13.48 79.92 13.62C80.08 13.76 80.3133 13.87 80.62 13.95C80.9267 14.0233 81.2967 14.06 81.73 14.06C82.1567 14.06 82.5233 14.0233 82.83 13.95C83.1367 13.87 83.37 13.76 83.53 13.62C83.6967 13.48 83.78 13.31 83.78 13.11C83.78 12.91 83.6967 12.74 83.53 12.6C83.37 12.4533 83.1367 12.3433 82.83 12.27C82.5233 12.19 82.1567 12.15 81.73 12.15ZM80.31 6.83V7.51C80.31 8.05667 80.21 8.57 80.01 9.05C79.81 9.53 79.5233 9.95333 79.15 10.32C78.7767 10.68 78.34 10.9533 77.84 11.14L77.38 10.41C77.82 10.2567 78.2033 10.03 78.53 9.73C78.8633 9.43 79.12 9.09 79.3 8.71C79.48 8.32333 79.57 7.92333 79.57 7.51V6.83H80.31ZM80.48 6.83V7.51C80.48 7.88333 80.5633 8.24667 80.73 8.6C80.9033 8.95333 81.15 9.26667 81.47 9.54C81.79 9.81333 82.1633 10.0233 82.59 10.17L82.13 10.89C81.6367 10.7167 81.21 10.46 80.85 10.12C80.4967 9.78 80.2233 9.38667 80.03 8.94C79.8433 8.48667 79.75 8.01 79.75 7.51V6.83H80.48ZM82.37 6.56V7.31H77.65V6.56H82.37ZM88.9602 6.41V7.28C88.9602 7.85333 88.8636 8.38667 88.6702 8.88C88.4769 9.37333 88.1969 9.80333 87.8302 10.17C87.4702 10.5367 87.0402 10.8133 86.5402 11L86.0502 10.27C86.4969 10.11 86.8836 9.88 87.2102 9.58C87.5369 9.28 87.7836 8.93333 87.9502 8.54C88.1236 8.14667 88.2102 7.72667 88.2102 7.28V6.41H88.9602ZM89.1202 6.41V7.35C89.1202 7.73667 89.2036 8.11 89.3702 8.47C89.5436 8.82333 89.7869 9.13667 90.1002 9.41C90.4202 9.68333 90.7936 9.89333 91.2202 10.04L90.7502 10.75C90.2702 10.5767 89.8502 10.3233 89.4902 9.99C89.1369 9.65 88.8636 9.25333 88.6702 8.8C88.4769 8.34667 88.3802 7.86333 88.3802 7.35V6.41H89.1202ZM92.9802 5.95V11.27H92.0602V5.95H92.9802ZM94.2502 8.17V8.93H92.7202V8.17H94.2502ZM90.1502 11.5C91.0636 11.5 91.7769 11.6433 92.2902 11.93C92.8102 12.2167 93.0702 12.6167 93.0702 13.13C93.0702 13.47 92.9536 13.76 92.7202 14C92.4869 14.2467 92.1502 14.4333 91.7102 14.56C91.2702 14.6867 90.7502 14.75 90.1502 14.75C89.5502 14.75 89.0302 14.6867 88.5902 14.56C88.1569 14.4333 87.8236 14.2467 87.5902 14C87.3569 13.7533 87.2402 13.46 87.2402 13.12C87.2402 12.78 87.3569 12.49 87.5902 12.25C87.8236 12.0033 88.1569 11.8167 88.5902 11.69C89.0302 11.5633 89.5502 11.5 90.1502 11.5ZM90.1502 12.21C89.5169 12.21 89.0202 12.29 88.6602 12.45C88.3069 12.61 88.1302 12.8333 88.1302 13.12C88.1302 13.4133 88.3069 13.64 88.6602 13.8C89.0202 13.96 89.5169 14.04 90.1502 14.04C90.7836 14.04 91.2769 13.96 91.6302 13.8C91.9902 13.64 92.1702 13.4133 92.1702 13.12C92.1702 12.8333 91.9902 12.61 91.6302 12.45C91.2769 12.29 90.7836 12.21 90.1502 12.21Z" fill="#AEAEAE"/>
<circle cx="149" cy="10" r="6" fill="#FFA73A"/>
<path d="M163.64 6.85V7.19C163.64 7.70333 163.483 8.17333 163.17 8.6C162.863 9.02667 162.443 9.38667 161.91 9.68C161.383 9.96667 160.803 10.16 160.17 10.26L159.83 9.52C160.37 9.44667 160.87 9.29667 161.33 9.07C161.797 8.83667 162.167 8.55667 162.44 8.23C162.713 7.90333 162.85 7.55667 162.85 7.19V6.85H163.64ZM163.87 6.85V7.19C163.87 7.55667 164.007 7.90333 164.28 8.23C164.553 8.55667 164.92 8.83667 165.38 9.07C165.847 9.29667 166.35 9.44667 166.89 9.52L166.55 10.26C165.917 10.16 165.333 9.96667 164.8 9.68C164.273 9.38667 163.853 9.02667 163.54 8.6C163.233 8.17333 163.08 7.70333 163.08 7.19V6.85H163.87ZM163.79 11.44V14.77H162.89V11.44H163.79ZM167.35 10.94V11.69H159.37V10.94H167.35ZM166.59 6.48V7.21H160.11V6.48H166.59ZM170.96 6.57C171.407 6.57 171.81 6.66 172.17 6.84C172.53 7.02 172.814 7.27 173.02 7.59C173.227 7.90333 173.33 8.26333 173.33 8.67C173.33 9.07667 173.227 9.44 173.02 9.76C172.814 10.0733 172.53 10.32 172.17 10.5C171.81 10.68 171.407 10.77 170.96 10.77C170.5 10.77 170.09 10.68 169.73 10.5C169.37 10.32 169.087 10.0733 168.88 9.76C168.674 9.44 168.57 9.07667 168.57 8.67C168.57 8.26333 168.674 7.90333 168.88 7.59C169.087 7.27 169.37 7.02 169.73 6.84C170.09 6.66 170.5 6.57 170.96 6.57ZM170.96 7.36C170.674 7.36 170.417 7.41333 170.19 7.52C169.964 7.62667 169.784 7.78 169.65 7.98C169.524 8.18 169.46 8.41 169.46 8.67C169.46 8.92333 169.524 9.15 169.65 9.35C169.784 9.55 169.964 9.70667 170.19 9.82C170.417 9.92667 170.674 9.98 170.96 9.98C171.24 9.98 171.494 9.92667 171.72 9.82C171.947 9.70667 172.124 9.55 172.25 9.35C172.377 9.15 172.44 8.92333 172.44 8.67C172.44 8.41 172.377 8.18 172.25 7.98C172.124 7.78 171.947 7.62667 171.72 7.52C171.494 7.41333 171.24 7.36 170.96 7.36ZM175.33 5.93V14.78H174.41V5.93H175.33ZM168.15 12.12C169.297 12.12 170.324 12.1033 171.23 12.07C172.144 12.0367 173.02 11.9533 173.86 11.82L173.93 12.49C173.064 12.6567 172.177 12.7633 171.27 12.81C170.364 12.8567 169.36 12.88 168.26 12.88L168.15 12.12Z" fill="#FFE5C5"/>
<path d="M163.64 6.85V7.19C163.64 7.70333 163.483 8.17333 163.17 8.6C162.863 9.02667 162.443 9.38667 161.91 9.68C161.383 9.96667 160.803 10.16 160.17 10.26L159.83 9.52C160.37 9.44667 160.87 9.29667 161.33 9.07C161.797 8.83667 162.167 8.55667 162.44 8.23C162.713 7.90333 162.85 7.55667 162.85 7.19V6.85H163.64ZM163.87 6.85V7.19C163.87 7.55667 164.007 7.90333 164.28 8.23C164.553 8.55667 164.92 8.83667 165.38 9.07C165.847 9.29667 166.35 9.44667 166.89 9.52L166.55 10.26C165.917 10.16 165.333 9.96667 164.8 9.68C164.273 9.38667 163.853 9.02667 163.54 8.6C163.233 8.17333 163.08 7.70333 163.08 7.19V6.85H163.87ZM163.79 11.44V14.77H162.89V11.44H163.79ZM167.35 10.94V11.69H159.37V10.94H167.35ZM166.59 6.48V7.21H160.11V6.48H166.59ZM170.96 6.57C171.407 6.57 171.81 6.66 172.17 6.84C172.53 7.02 172.814 7.27 173.02 7.59C173.227 7.90333 173.33 8.26333 173.33 8.67C173.33 9.07667 173.227 9.44 173.02 9.76C172.814 10.0733 172.53 10.32 172.17 10.5C171.81 10.68 171.407 10.77 170.96 10.77C170.5 10.77 170.09 10.68 169.73 10.5C169.37 10.32 169.087 10.0733 168.88 9.76C168.674 9.44 168.57 9.07667 168.57 8.67C168.57 8.26333 168.674 7.90333 168.88 7.59C169.087 7.27 169.37 7.02 169.73 6.84C170.09 6.66 170.5 6.57 170.96 6.57ZM170.96 7.36C170.674 7.36 170.417 7.41333 170.19 7.52C169.964 7.62667 169.784 7.78 169.65 7.98C169.524 8.18 169.46 8.41 169.46 8.67C169.46 8.92333 169.524 9.15 169.65 9.35C169.784 9.55 169.964 9.70667 170.19 9.82C170.417 9.92667 170.674 9.98 170.96 9.98C171.24 9.98 171.494 9.92667 171.72 9.82C171.947 9.70667 172.124 9.55 172.25 9.35C172.377 9.15 172.44 8.92333 172.44 8.67C172.44 8.41 172.377 8.18 172.25 7.98C172.124 7.78 171.947 7.62667 171.72 7.52C171.494 7.41333 171.24 7.36 170.96 7.36ZM175.33 5.93V14.78H174.41V5.93H175.33ZM168.15 12.12C169.297 12.12 170.324 12.1033 171.23 12.07C172.144 12.0367 173.02 11.9533 173.86 11.82L173.93 12.49C173.064 12.6567 172.177 12.7633 171.27 12.81C170.364 12.8567 169.36 12.88 168.26 12.88L168.15 12.12Z" fill="#FF8C00"/>
<circle cx="231" cy="10" r="6" fill="#FF4A4A"/>
<path d="M244.24 6.35C244.673 6.35 245.06 6.42667 245.4 6.58C245.747 6.73333 246.017 6.95 246.21 7.23C246.403 7.50333 246.5 7.82 246.5 8.18C246.5 8.52667 246.403 8.84 246.21 9.12C246.017 9.4 245.747 9.61667 245.4 9.77C245.06 9.92333 244.673 10 244.24 10C243.807 10 243.417 9.92333 243.07 9.77C242.73 9.61667 242.463 9.4 242.27 9.12C242.077 8.84 241.98 8.52667 241.98 8.18C241.98 7.82 242.077 7.50333 242.27 7.23C242.463 6.95 242.73 6.73333 243.07 6.58C243.417 6.42667 243.807 6.35 244.24 6.35ZM244.24 7.09C243.973 7.09 243.733 7.13667 243.52 7.23C243.313 7.32333 243.15 7.45333 243.03 7.62C242.91 7.78 242.85 7.96667 242.85 8.18C242.85 8.38667 242.91 8.57333 243.03 8.74C243.15 8.9 243.313 9.02667 243.52 9.12C243.733 9.20667 243.973 9.25 244.24 9.25C244.507 9.25 244.743 9.20667 244.95 9.12C245.163 9.02667 245.33 8.9 245.45 8.74C245.57 8.57333 245.63 8.38667 245.63 8.18C245.63 7.96667 245.57 7.78 245.45 7.62C245.33 7.45333 245.163 7.32333 244.95 7.23C244.743 7.13667 244.507 7.09 244.24 7.09ZM244.74 10.97V14.49H243.82V10.97H244.74ZM248.62 5.94V14.77H247.72V5.94H248.62ZM241.36 10.69C242.46 10.69 243.48 10.6733 244.42 10.64C245.367 10.6 246.267 10.5133 247.12 10.38L247.18 11.06C246.307 11.22 245.42 11.3267 244.52 11.38C243.62 11.4267 242.603 11.4533 241.47 11.46L241.36 10.69ZM257.38 5.95V11.28H256.47V5.95H257.38ZM256.86 8.6V9.35H255.09V8.6H256.86ZM257.38 11.72V14.65H251.62V11.72H257.38ZM252.52 12.46V13.92H256.49V12.46H252.52ZM255.23 6.83V7.56H250.12V6.83H255.23ZM252.68 7.97C253.074 7.97 253.427 8.03667 253.74 8.17C254.054 8.30333 254.297 8.49 254.47 8.73C254.644 8.97 254.73 9.24333 254.73 9.55C254.73 9.85667 254.64 10.13 254.46 10.37C254.287 10.6033 254.044 10.7867 253.73 10.92C253.424 11.0533 253.074 11.12 252.68 11.12C252.28 11.12 251.924 11.0567 251.61 10.93C251.297 10.7967 251.05 10.61 250.87 10.37C250.697 10.13 250.61 9.85667 250.61 9.55C250.61 9.24333 250.7 8.97 250.88 8.73C251.06 8.49 251.304 8.30333 251.61 8.17C251.924 8.03667 252.28 7.97 252.68 7.97ZM252.67 8.66C252.444 8.66 252.24 8.69667 252.06 8.77C251.88 8.84333 251.74 8.94667 251.64 9.08C251.54 9.21333 251.49 9.36667 251.49 9.54C251.49 9.80667 251.6 10.0233 251.82 10.19C252.04 10.3567 252.327 10.44 252.68 10.44C253.027 10.44 253.307 10.3567 253.52 10.19C253.74 10.0233 253.85 9.81 253.85 9.55C253.85 9.37 253.8 9.21333 253.7 9.08C253.6 8.94667 253.46 8.84333 253.28 8.77C253.107 8.69667 252.904 8.66 252.67 8.66ZM253.13 5.86V7.35H252.22V5.86H253.13Z" fill="#FF0000"/>
</svg>
