<svg width="38" height="28" viewBox="0 0 38 28" fill="none" xmlns="http://www.w3.org/2000/svg">
<rect width="38" height="27.1667" rx="4" fill="#F8F8F8"/>
<circle cx="19" cy="14" r="7" fill="#AEAEAE"/>
<path d="M16.2987 16.788C16.6507 16.452 17.0987 16.056 17.6427 15.6C18.2507 15.072 18.7347 14.632 19.0947 14.28C19.4547 13.928 19.7547 13.568 19.9947 13.2C20.2427 12.824 20.3667 12.468 20.3667 12.132C20.3667 11.82 20.3067 11.544 20.1867 11.304C20.0667 11.064 19.8987 10.876 19.6827 10.74C19.4667 10.604 19.2187 10.536 18.9387 10.536C18.6107 10.536 18.2947 10.644 17.9907 10.86C17.6867 11.068 17.4627 11.34 17.3187 11.676L16.0707 11.124C16.3187 10.564 16.7107 10.104 17.2467 9.744C17.7827 9.384 18.3467 9.204 18.9387 9.204C19.4987 9.204 19.9947 9.328 20.4267 9.576C20.8587 9.824 21.1947 10.172 21.4347 10.62C21.6827 11.06 21.8067 11.564 21.8067 12.132C21.8067 12.684 21.6467 13.228 21.3267 13.764C21.0067 14.292 20.6227 14.776 20.1747 15.216C19.7267 15.648 19.1427 16.16 18.4227 16.752C17.9267 17.168 17.5267 17.516 17.2227 17.796L16.2987 16.788ZM16.2987 16.788H21.9387V18.048H16.4187L16.2987 16.788Z" fill="white"/>
</svg>
