<svg width="38" height="28" viewBox="0 0 38 28" fill="none" xmlns="http://www.w3.org/2000/svg">
<rect width="38" height="27.1667" rx="4" fill="#FFD7A5"/>
<circle cx="19" cy="14" r="7" fill="#FFE5C5"/>
<circle cx="19" cy="14" r="7" fill="#FF8C00"/>
<path d="M20.7108 13.512C21.1028 13.736 21.4188 14.044 21.6588 14.436C21.9068 14.82 22.0308 15.2 22.0308 15.576C22.0308 16.064 21.8988 16.504 21.6348 16.896C21.3788 17.28 21.0228 17.58 20.5668 17.796C20.1108 18.012 19.5908 18.12 19.0068 18.12C18.4148 18.12 17.8908 18.008 17.4348 17.784C16.9788 17.552 16.6228 17.236 16.3668 16.836C16.1108 16.436 15.9828 15.98 15.9828 15.468H17.4228C17.4228 15.732 17.4868 15.968 17.6148 16.176C17.7508 16.384 17.9388 16.548 18.1788 16.668C18.4188 16.788 18.6908 16.848 18.9948 16.848C19.3148 16.848 19.5988 16.788 19.8468 16.668C20.0948 16.548 20.2868 16.388 20.4228 16.188C20.5668 15.98 20.6388 15.74 20.6388 15.468C20.6388 15.212 20.5708 14.98 20.4348 14.772C20.2988 14.564 20.1068 14.404 19.8588 14.292C19.6108 14.172 19.3308 14.112 19.0188 14.112H18.4068V12.924H19.0428C19.3228 12.924 19.5748 12.876 19.7988 12.78C20.0228 12.676 20.1948 12.532 20.3148 12.348C20.4428 12.156 20.5068 11.94 20.5068 11.7C20.5068 11.348 20.3708 11.06 20.0988 10.836C19.8348 10.604 19.4948 10.488 19.0788 10.488C18.8068 10.488 18.5668 10.54 18.3588 10.644C18.1508 10.748 17.9868 10.892 17.8668 11.076C17.7468 11.26 17.6868 11.472 17.6868 11.712H16.2468C16.2468 11.232 16.3668 10.804 16.6068 10.428C16.8468 10.044 17.1788 9.748 17.6028 9.54C18.0348 9.324 18.5268 9.216 19.0788 9.216C19.6228 9.216 20.1068 9.32 20.5308 9.528C20.9628 9.728 21.2948 10.008 21.5268 10.368C21.7668 10.728 21.8868 11.14 21.8868 11.604C21.8868 11.948 21.7788 12.3 21.5628 12.66C21.3548 13.012 21.0708 13.296 20.7108 13.512Z" fill="white"/>
</svg>
