<svg width="24" height="12" viewBox="0 0 24 12" fill="none" xmlns="http://www.w3.org/2000/svg">
<path d="M5.83333 11.6667C4.21945 11.6667 2.84395 11.0977 1.70683 9.95983C0.569723 8.82194 0.000778574 7.44644 7.96359e-07 5.83333C-0.000776981 4.22022 0.568168 2.84472 1.70683 1.70683C2.8455 0.568945 4.221 0 5.83333 0H9.33333C9.66389 0 9.94117 0.112 10.1652 0.336C10.3892 0.56 10.5008 0.836889 10.5 1.16667C10.4992 1.49644 10.3872 1.77372 10.164 1.9985C9.94078 2.22328 9.66389 2.33489 9.33333 2.33333H5.83333C4.86111 2.33333 4.03472 2.67361 3.35417 3.35417C2.67361 4.03472 2.33333 4.86111 2.33333 5.83333C2.33333 6.80556 2.67361 7.63194 3.35417 8.3125C4.03472 8.99306 4.86111 9.33333 5.83333 9.33333H9.33333C9.66389 9.33333 9.94117 9.44533 10.1652 9.66933C10.3892 9.89333 10.5008 10.1702 10.5 10.5C10.4992 10.8298 10.3872 11.1071 10.164 11.3318C9.94078 11.5566 9.66389 11.6682 9.33333 11.6667H5.83333ZM8.16667 7C7.83611 7 7.55922 6.888 7.336 6.664C7.11278 6.44 7.00078 6.16311 7 5.83333C6.99922 5.50356 7.11122 5.22667 7.336 5.00267C7.56078 4.77867 7.83767 4.66667 8.16667 4.66667H15.1667C15.4972 4.66667 15.7745 4.77867 15.9985 5.00267C16.2225 5.22667 16.3341 5.50356 16.3333 5.83333C16.3326 6.16311 16.2206 6.44039 15.9973 6.66517C15.7741 6.88994 15.4972 7.00156 15.1667 7H8.16667ZM14 11.6667C13.6694 11.6667 13.3926 11.5547 13.1693 11.3307C12.9461 11.1067 12.8341 10.8298 12.8333 10.5C12.8326 10.1702 12.9446 9.89333 13.1693 9.66933C13.3941 9.44533 13.671 9.33333 14 9.33333H17.5C18.4722 9.33333 19.2986 8.99306 19.9792 8.3125C20.6597 7.63194 21 6.80556 21 5.83333C21 4.86111 20.6597 4.03472 19.9792 3.35417C19.2986 2.67361 18.4722 2.33333 17.5 2.33333H14C13.6694 2.33333 13.3926 2.22133 13.1693 1.99733C12.9461 1.77333 12.8341 1.49644 12.8333 1.16667C12.8326 0.836889 12.9446 0.56 13.1693 0.336C13.3941 0.112 13.671 0 14 0H17.5C19.1139 0 20.4898 0.568945 21.6277 1.70683C22.7656 2.84472 23.3341 4.22022 23.3333 5.83333C23.3326 7.44644 22.7636 8.82233 21.6265 9.961C20.4894 11.0997 19.1139 11.6682 17.5 11.6667H14Z" fill="#D9D9D9"/>
</svg>
