<svg width="117" height="48" viewBox="0 0 117 48" fill="none" xmlns="http://www.w3.org/2000/svg">
<path d="M98.4954 13.8511H98.4612C93.5568 13.8511 89.7167 17.2058 89.7167 23.2428C89.7167 24.159 89.8192 25.0022 89.9924 25.7885C90.4186 27.8008 91.4783 29.1568 91.4783 29.1568C93.0987 31.388 95.6671 32.5731 98.4635 32.5731C98.468 32.5731 98.4749 32.5731 98.4794 32.5731C98.4863 32.5731 98.4931 32.5731 98.4999 32.5731C103.404 32.5731 107.244 29.2184 107.244 23.1813C107.244 17.1442 103.176 13.8534 98.4999 13.8534L98.4954 13.8511ZM98.4863 28.9905C98.4863 28.9905 98.4817 28.9905 98.4772 28.9905C98.4772 28.9905 98.4726 28.9905 98.468 28.9905C97.0414 28.9905 95.7287 28.2589 94.9014 26.8824C94.9014 26.8824 94.3613 26.046 94.1425 24.804C94.0536 24.3185 94.0012 23.7966 94.0012 23.2314C94.0012 19.5053 95.9611 17.4337 98.4658 17.4337H98.484C100.872 17.4337 102.951 19.4665 102.951 23.1927C102.951 26.9189 100.989 28.9905 98.484 28.9905H98.4863Z" fill="#DE563C"/>
<path d="M93.9014 30.3645L92.9488 26.8047C90.9205 27.3471 88.5458 28.0263 85.8475 29.0359V15.6399C85.8475 14.5209 84.8948 13.9102 83.81 13.8965C83.81 13.8965 76.3053 13.8965 76.303 13.9033C72.668 13.9785 68.8347 16.8523 68.8347 22.7094C68.8347 26.0117 69.8352 28.261 71.3302 29.6694C72.1735 30.581 73.1831 31.2944 74.4023 31.8322C74.6758 31.953 74.9584 32.01 75.2387 32.01C76.0364 32.01 76.7953 31.5473 77.1394 30.7725C77.5998 29.7241 77.1257 28.498 76.0774 28.0377C73.8781 27.0668 73.1648 24.9086 73.1648 22.6433C73.1648 19.2202 75.102 17.4472 77.5542 17.4472H81.6814L81.686 30.8819C81.0638 31.1873 80.4462 31.504 79.8377 31.8368C78.598 32.5114 77.3513 33.2087 76.1959 34.0223C74.1813 35.4399 72.2031 37.238 71.4282 39.6537C70.5235 42.4797 71.7063 46.3312 74.9128 47.5619C78.4293 48.9088 82.47 47.0012 84.3502 43.9132C85.811 41.5134 85.8156 39.2139 85.8292 36.5543C85.8338 35.5014 85.852 34.4485 85.852 33.4002V32.99C88.9264 31.757 91.5358 31.0004 93.906 30.3668L93.9014 30.3645ZM80.5442 42.5572C79.4936 43.9861 77.2944 44.9775 75.7743 43.5463C74.767 42.6028 74.7624 40.9733 75.4894 39.8634C75.9703 39.1319 76.6676 38.4345 77.6772 37.6665C77.6772 37.6665 78.9147 36.4973 81.4262 35.1163C81.5105 35.0707 81.5948 35.0251 81.6837 34.9772C81.6837 35.825 81.7247 36.7252 81.7225 37.6277C81.7134 39.3119 81.5789 41.1511 80.5442 42.5549V42.5572Z" fill="#DE563C"/>
<path d="M36.7502 13.8926C34.7834 13.8926 32.3608 14.3438 30.8453 15.121C28.9081 16.0234 29.8129 19.4465 32.1694 18.4437C33.1676 17.9925 34.7834 17.5413 35.7816 17.5413C38.5278 17.5413 39.6559 18.3161 39.6559 20.2852V21.1558C38.4959 21.0258 35.9183 20.962 34.4347 21.2218C31.6293 21.6754 28.3657 23.2251 28.3657 27.0652C28.3657 30.5088 30.7564 32.4322 33.7738 32.4801V32.4892H41.7549C42.8237 32.4892 43.79 31.842 43.79 30.6136V19.9319C43.79 15.7044 40.7247 13.8949 36.7502 13.8949V13.8926ZM39.6513 29.032H35.1366C35.1366 29.032 35.1161 29.032 35.1093 29.032C33.8855 29.032 32.5272 28.3551 32.5272 26.8054C32.5272 24.9981 33.8855 24.3851 35.3987 24.0615C36.4038 23.87 38.7215 23.87 39.6536 24.0615C39.6536 24.8135 39.6513 28.1272 39.6513 29.032Z" fill="#DE563C"/>
<path d="M41.1177 2.58461C40.3132 2.02398 39.2079 2.21997 38.6473 3.02446C37.5944 4.5286 36.0857 5.73875 34.2785 6.52272C31.5505 7.7078 28.6835 7.41609 28.663 7.41153C26.0649 7.10387 23.2891 6.27659 20.4039 4.95021C19.7567 4.65166 19.1254 4.33032 18.4508 3.98847C17.4617 3.48254 16.4407 2.95837 15.3536 2.5208C13.7674 1.87812 11.3836 1.13517 9.07954 1.18986C6.58631 1.25367 4.56028 1.88268 3.06298 3.05408C1.14634 4.55139 0 6.8942 0 9.32589C0 13.7084 3.56208 17.275 7.9446 17.275C9.91821 17.275 11.8075 16.548 13.2683 15.2308C13.9976 14.5722 14.0546 13.4509 13.4005 12.7216C12.7396 11.9946 11.6183 11.9376 10.8913 12.594C10.0823 13.321 9.03852 13.7244 7.9446 13.7244C5.52202 13.7244 3.5484 11.7508 3.5484 9.32589C3.5484 7.98128 4.18425 6.68225 5.24626 5.85498C6.13735 5.16216 7.45689 4.78612 9.17754 4.74054C10.4948 4.69952 12.2223 5.08923 14.0204 5.81623C14.9662 6.19683 15.8755 6.66174 16.8418 7.15629C17.4777 7.4799 18.861 8.14765 18.861 8.14765V30.7508C18.861 31.8834 19.8364 32.4532 20.9372 32.4532C21.9741 32.4532 23.0133 31.8834 23.0133 30.7508V9.76802C23.0133 9.76802 26.5754 10.7412 28.2482 10.9394C28.4009 10.9577 32.0633 11.3565 35.696 9.77942C38.1026 8.73335 40.1332 7.09703 41.5553 5.05505C42.1182 4.24828 41.9199 3.14297 41.1177 2.58233V2.58461Z" fill="#DE563C"/>
<path d="M60.4098 20.9894C60.4098 19.0545 58.5957 17.833 56.7976 17.833C54.6508 17.833 52.9005 19.4511 52.7957 21.4839V30.7526C52.7957 31.8853 51.7565 32.455 50.7195 32.455C49.621 32.455 48.6456 31.8853 48.6456 30.7526V15.595C48.6456 14.46 49.6849 13.8926 50.7218 13.8926C51.8203 13.8926 52.7957 14.4623 52.7957 15.595V15.8844C54.1426 14.7814 55.9316 14.1091 57.8961 14.1091C58.7872 14.1091 59.6418 14.2481 60.4372 14.5034C62.7823 15.0754 64.5257 17.1447 64.5667 19.6265V30.7526C64.5667 31.8853 63.5275 32.455 62.4906 32.455C61.3921 32.455 60.4167 31.8853 60.4167 30.7526C60.4167 30.6865 60.4121 20.9894 60.4121 20.9894H60.4098Z" fill="#DE563C"/>
<path d="M22.9394 44.9213H19.7853V39.1874C19.7853 39.0825 19.7306 39.0688 19.6827 39.0688H18.9762C18.9284 39.0688 18.8737 39.0825 18.8737 39.1874V45.6438C18.8737 45.7486 18.9284 45.7623 18.9762 45.7623H22.9417C23.0192 45.7623 23.0556 45.7281 23.0556 45.6529V45.0307C23.0556 44.9555 23.0192 44.9213 22.9417 44.9213H22.9394Z" fill="#121212"/>
<path d="M24.8125 40.8604H24.1242C24.0741 40.8604 24.0194 40.874 24.0194 40.9766V45.6463C24.0194 45.7511 24.0764 45.7648 24.1242 45.7648H24.8125C24.8604 45.7648 24.9173 45.7511 24.9173 45.6463V40.9766C24.9173 40.874 24.8626 40.8604 24.8125 40.8604Z" fill="#121212"/>
<path d="M24.8034 39.0173C24.6872 38.9945 24.5778 38.9854 24.4684 38.9854C24.359 38.9854 24.245 38.9967 24.1334 39.0173C24.0445 39.0332 24.0194 39.0606 24.0194 39.1358V39.8833C24.0194 39.9585 24.0468 39.9858 24.1334 39.9995C24.3635 40.0451 24.5755 40.0451 24.8034 39.9995C24.89 39.9836 24.9173 39.9585 24.9173 39.881V39.1335C24.9173 39.0583 24.89 39.0309 24.8034 39.015V39.0173Z" fill="#121212"/>
<path d="M28.6082 39.0067C28.5102 38.9634 28.2868 38.895 27.8948 38.895C27.0584 38.895 26.6528 39.2688 26.6528 40.0368V40.9507H26.0329C25.9554 40.9507 25.9189 40.9849 25.9189 41.0601V41.6025C25.9189 41.6777 25.9531 41.7119 26.0329 41.7119H26.6528V45.6477C26.6528 45.7525 26.7075 45.7662 26.7553 45.7662H27.4459C27.496 45.7662 27.5507 45.7525 27.5507 45.6477V41.7119H28.6036C28.6788 41.7119 28.7153 41.6777 28.7153 41.6025V41.0601C28.7153 40.9849 28.6811 40.9507 28.6036 40.9507H27.5507V40.251C27.5507 39.8112 27.6441 39.5856 28.1546 39.5856C28.2982 39.5856 28.3917 39.597 28.4737 39.6083C28.517 39.6152 28.5603 39.6197 28.6082 39.622C28.6196 39.622 28.6287 39.622 28.6378 39.622C28.697 39.622 28.7153 39.6152 28.7153 39.5286V39.1548C28.7153 39.0705 28.7039 39.0454 28.6104 39.0067H28.6082Z" fill="#121212"/>
<path d="M31.4204 40.8867C30.0803 40.8867 29.3419 41.6958 29.3419 43.1657V43.6443C29.3419 44.7154 29.604 45.8094 31.5503 45.8094C32.0289 45.8094 32.6943 45.7159 33.1365 45.4516C33.2322 45.3923 33.2481 45.3513 33.2481 45.2829V44.8727C33.2481 44.7952 33.2094 44.7952 33.1912 44.7952C33.1729 44.7952 33.157 44.7998 33.1365 44.8066C32.6784 44.9639 32.1542 45.0482 31.6574 45.0482H31.5822C30.1943 45.0299 30.1943 44.3326 30.1943 43.8244V43.7013H33.1342C33.3074 43.7013 33.3507 43.6603 33.3507 43.4962V43.2933C33.3507 41.632 32.7559 40.8913 31.4204 40.8913V40.8867ZM32.5075 42.9492H30.1965V42.8512C30.1965 42.0353 30.5885 41.6547 31.4295 41.6547C32.1747 41.6547 32.5075 42.0239 32.5075 42.8512V42.9492Z" fill="#121212"/>
<path d="M39.1122 39.0723H37.0087C36.9608 39.0723 36.9061 39.0859 36.9061 39.1908V45.6472C36.9061 45.752 36.9608 45.7657 37.0087 45.7657H39.1555C41.2636 45.7657 41.9063 45.1162 41.9063 42.9785V42.0167C41.9063 39.8426 41.1747 39.0723 39.1122 39.0723ZM41.0174 43.04C41.0174 44.2889 40.7235 44.9247 39.1122 44.9247H37.8109V39.9132H39.1555C40.7189 39.9132 41.0152 40.5992 41.0152 41.8686V43.04H41.0174Z" fill="#121212"/>
<path d="M44.9932 40.8867C43.6532 40.8867 42.9148 41.6958 42.9148 43.1657V43.6443C42.9148 44.7154 43.1769 45.8094 45.1231 45.8094C45.5995 45.8094 46.2649 45.7159 46.7093 45.4516C46.8051 45.3923 46.821 45.3513 46.821 45.2829V44.8727C46.821 44.7952 46.7823 44.7952 46.7663 44.7952C46.7504 44.7952 46.7321 44.7998 46.7116 44.8066C46.2535 44.9639 45.7294 45.0482 45.2303 45.0482H45.1573C43.7694 45.0299 43.7694 44.3326 43.7694 43.8244V43.7013H46.7093C46.8825 43.7013 46.9236 43.6603 46.9236 43.4962V43.2933C46.9236 41.632 46.3287 40.8913 44.991 40.8913L44.9932 40.8867ZM46.078 42.9492H43.7694V42.8512C43.7694 42.0353 44.1614 41.6547 45.0024 41.6547C45.7476 41.6547 46.0803 42.0239 46.0803 42.8512V42.9492H46.078Z" fill="#121212"/>
<path d="M49.7825 42.9753L49.427 42.8864C48.88 42.7451 48.7091 42.679 48.7091 42.2141C48.7091 41.7492 48.9826 41.5942 49.6914 41.5942C50.0218 41.5942 50.4503 41.6261 50.7967 41.6534L50.8514 41.658C50.9175 41.6648 50.9585 41.6512 50.9585 41.5486V41.1749C50.9585 41.111 50.9425 41.0883 50.8354 41.045C50.5483 40.931 50.0628 40.8604 49.5615 40.8604C48.4106 40.8604 47.8271 41.3344 47.8271 42.2688C47.8271 43.0687 48.1257 43.3604 49.2105 43.6316L49.5637 43.7228C50.2907 43.9005 50.3523 44.0464 50.3523 44.4566C50.3523 44.8668 50.0583 45.0697 49.3974 45.0856C49.3358 45.0856 49.2743 45.0879 49.2128 45.0879C48.8413 45.0879 48.4106 45.0651 47.9684 45.0218C47.9639 45.0218 47.9593 45.0218 47.9525 45.0218C47.8864 45.0218 47.8499 45.0537 47.8499 45.1152V45.4617C47.8499 45.5619 47.875 45.6007 47.9548 45.6257C48.4083 45.767 48.9621 45.8468 49.4475 45.8377C50.6668 45.8149 51.2343 45.3614 51.2343 44.4133C51.2343 43.6271 51.0132 43.292 49.7825 42.9775V42.9753Z" fill="#121212"/>
<path d="M52.9953 40.8604H52.3048C52.2569 40.8604 52.2 40.874 52.2 40.9766V45.6463C52.2 45.7511 52.2569 45.7648 52.3048 45.7648H52.9953C53.0432 45.7648 53.0979 45.7511 53.0979 45.6463V40.9766C53.0979 40.874 53.0432 40.8604 52.9953 40.8604Z" fill="#121212"/>
<path d="M52.9839 39.0173C52.87 38.9945 52.7606 38.9854 52.6489 38.9854C52.5372 38.9854 52.4279 38.9967 52.3139 39.0173C52.2273 39.0332 52.2 39.0606 52.2 39.1358V39.8833C52.2 39.9585 52.2273 39.9858 52.3139 39.9995C52.5441 40.0451 52.756 40.0451 52.9839 39.9995C53.0705 39.9836 53.0979 39.9585 53.0979 39.881V39.1335C53.0979 39.0583 53.0705 39.0309 52.9839 39.015V39.0173Z" fill="#121212"/>
<path d="M58.2678 40.9471H57.5954C57.5476 40.9471 57.5088 40.9471 57.5088 41.0816V41.1568L57.4382 41.1272C57.0508 40.9722 56.6178 40.8833 56.2508 40.8833C54.9222 40.8833 54.2772 41.5579 54.2772 42.9481V44.0329C54.2772 45.1587 54.8857 45.8037 55.95 45.8037C56.4673 45.8037 57.0097 45.692 57.4017 45.5051L57.4747 45.4709V46.1296C57.4747 46.909 57.1283 47.2121 56.1939 47.2486C56.0526 47.2531 55.8976 47.2554 55.7198 47.2554C55.5626 47.2554 55.4008 47.2531 55.2435 47.2508C55.0863 47.2508 54.9313 47.2463 54.7763 47.2463C54.7011 47.2463 54.6715 47.2736 54.6715 47.3465V47.7385C54.6715 47.8206 54.6874 47.8593 54.7832 47.873C55.1934 47.9254 55.7335 47.9869 56.2668 47.9869C57.7618 47.9869 58.3703 47.4559 58.3703 46.1524V41.0588C58.3703 40.954 58.3156 40.9403 58.2655 40.9403L58.2678 40.9471ZM57.4747 44.7097L57.445 44.7234C57.0143 44.9171 56.579 45.0129 56.1141 45.0129C55.4896 45.0129 55.1729 44.6323 55.1729 43.8847V42.9959C55.1729 42.0388 55.5102 41.681 56.4149 41.681C56.6132 41.681 57.0553 41.7288 57.445 41.9066L57.4747 41.9202V44.7075V44.7097Z" fill="#121212"/>
<path d="M62.1588 40.8867C61.678 40.8867 61.0809 41.0713 60.6137 41.2308L60.5612 41.2491L60.5043 41.044C60.4838 40.9802 60.4382 40.9482 60.363 40.9482H59.7864C59.7385 40.9482 59.6838 40.9619 59.6838 41.0668V45.6476C59.6838 45.7524 59.7385 45.7661 59.7864 45.7661H60.4747C60.5248 45.7661 60.5795 45.7524 60.5795 45.6476V41.9647L60.6137 41.9533C61.0034 41.8257 61.5663 41.6753 62.0358 41.6753C62.6784 41.6753 62.7263 42.0513 62.7263 42.6256V45.6498C62.7263 45.7547 62.781 45.7683 62.8289 45.7683H63.5194C63.5673 45.7683 63.6242 45.7547 63.6242 45.6498V42.3339C63.6242 41.363 63.1456 40.8913 62.1588 40.8913V40.8867Z" fill="#121212"/>
<path d="M116.383 6.28548V6.98058C116.383 7.53438 115.936 7.98106 115.389 7.98106H111.1V12.2701C111.1 12.8194 110.654 13.2706 110.1 13.2706H109.405C108.851 13.2706 108.404 12.8171 108.404 12.2701V7.98106H104.115C103.561 7.98106 103.115 7.53438 103.115 6.98058V6.28548C103.115 5.73169 103.561 5.285 104.115 5.285H108.404V0.993644C108.404 0.444405 108.851 0 109.405 0H110.1C110.654 0 111.1 0.446684 111.1 0.993644V5.28272H115.389C115.939 5.28272 116.383 5.72941 116.383 6.2832V6.28548Z" fill="#DE563C"/>
</svg>
