<svg width="20" height="20" viewBox="0 0 20 20" fill="none" xmlns="http://www.w3.org/2000/svg">
<path d="M7.93803 3.57143C8.85446 1.98413 11.1455 1.98413 12.062 3.57143L16.5983 11.4286C17.5147 13.0159 16.3692 15 14.5363 15L5.46368 15C3.63082 15 2.48528 13.0159 3.40171 11.4286L7.93803 3.57143Z" fill="#FF5252"/>
<path d="M9.93291 11.8601C10.1462 11.8601 10.3262 11.9334 10.4729 12.0801C10.6196 12.2267 10.6929 12.4067 10.6929 12.6201C10.6929 12.8334 10.6196 13.0134 10.4729 13.1601C10.3262 13.3067 10.1462 13.3801 9.93291 13.3801C9.71958 13.3801 9.53958 13.3067 9.39291 13.1601C9.24625 13.0134 9.17291 12.8334 9.17291 12.6201C9.17291 12.4067 9.24625 12.2267 9.39291 12.0801C9.53958 11.9334 9.71958 11.8601 9.93291 11.8601ZM9.93291 5.46008C10.1462 5.46008 10.3162 5.50675 10.4429 5.60008C10.5762 5.69342 10.6396 5.85008 10.6329 6.07008L10.4729 10.6401C10.4662 10.8467 10.4062 10.9901 10.2929 11.0701C10.1862 11.1501 10.0662 11.1901 9.93291 11.1901C9.79958 11.1901 9.67625 11.1501 9.56291 11.0701C9.45625 10.9901 9.39958 10.8467 9.39291 10.6401L9.23291 6.07008C9.22625 5.85008 9.28625 5.69342 9.41291 5.60008C9.54625 5.50675 9.71958 5.46008 9.93291 5.46008Z" fill="white"/>
</svg>
